<svg xmlns="http://www.w3.org/2000/svg" version="1.0" width="1024.000000pt" height="1024.000000pt" viewBox="0 0 1024.000000 1024.000000" preserveAspectRatio="xMidYMid meet">

<g transform="translate(0.000000,1024.000000) scale(0.100000,-0.100000)" fill="#cfd0d0" stroke="none">
<path d="M4865 9823 c-810 -52 -1567 -299 -2210 -720 -150 -98 -356 -253 -465 -348 l-75 -65 -537 0 -537 0 -20 -26 c-21 -26 -21 -33 -21 -791 l0 -764 -85 -252 c-124 -369 -187 -641 -232 -997 -13 -105 -17 -217 -17 -500 -1 -323 2 -386 22 -545 53 -408 132 -739 263 -1089 l49 -131 0 -1336 0 -1336 23 -21 22 -21 1890 -6 c2355 -7 2125 -7 4378 2 l1889 8 19 24 c18 23 19 59 19 1357 0 1197 2 1338 16 1372 83 195 200 593 250 852 108 563 108 1185 -1 1721 -50 244 -144 566 -230 785 l-35 89 0 781 0 781 -23 21 -23 22 -531 0 -531 0 -99 83 c-268 226 -589 436 -908 592 -518 253 -1101 409 -1694 455 -123 9 -444 11 -566 3z m651 -158 c819 -78 1580 -374 2248 -874 l128 -96 -1380 -3 c-759 -1 -2005 -1 -2768 0 l-1387 3 104 81 c667 517 1485 827 2364 897 127 11 549 5 691 -8z m-3556 -1121 c0 -3 -49 -58 -110 -122 -244 -260 -528 -661 -665 -940 -16 -34 -32 -61 -35 -62 -3 0 -4 254 -2 565 l2 565 405 0 c223 0 405 -3 405 -6z m6236 -136 c331 -338 556 -653 774 -1088 43 -85 90 -183 104 -217 l26 -63 -2 -1709 -3 -1709 -112 -223 c-227 -453 -431 -735 -812 -1121 l-194 -198 -57 54 c-125 120 -209 130 -389 45 -57 -27 -97 -39 -127 -39 l-44 0 0 42 c0 36 -30 94 -234 447 -331 574 -331 575 -374 613 -29 26 -41 47 -50 89 -15 68 -63 152 -102 181 -26 19 -30 28 -30 71 0 72 -28 135 -274 612 l-221 430 0 95 c0 84 -3 101 -27 145 -27 51 -62 89 -110 120 l-28 17 0 139 c0 90 4 139 10 139 21 0 113 96 136 142 31 61 46 163 42 287 l-3 99 60 12 c32 7 82 23 110 38 43 22 66 26 167 30 104 4 124 2 167 -17 64 -27 94 -27 611 3 678 40 654 39 709 26 43 -10 100 -7 393 20 189 17 367 38 395 46 62 17 115 60 146 118 21 38 22 54 22 246 0 234 -6 258 -83 317 -56 43 -94 46 -517 41 -339 -3 -352 -4 -400 -26 -47 -22 -56 -22 -228 -16 -98 4 -174 11 -170 15 4 4 82 51 173 105 158 93 167 97 218 95 68 -3 90 8 427 201 149 85 289 165 312 177 98 49 152 125 153 212 0 48 -68 245 -120 349 -62 122 -124 166 -224 157 -51 -4 -118 -31 -416 -165 -206 -93 -371 -174 -393 -192 -20 -17 -48 -53 -61 -78 -23 -46 -29 -49 -138 -96 -149 -65 -446 -199 -972 -440 l-428 -196 -204 0 c-197 0 -204 1 -204 20 0 11 0 23 0 27 -1 4 23 13 52 20 86 22 154 62 218 129 57 60 120 167 120 207 0 14 9 17 53 17 99 0 193 64 217 148 7 23 10 115 8 249 l-3 211 -30 43 c-38 54 -89 80 -170 87 l-65 5 -11 41 c-19 70 -88 191 -145 254 -102 114 -262 200 -434 236 -168 34 -493 30 -645 -9 -71 -18 -187 -72 -247 -113 -125 -86 -240 -249 -272 -384 -6 -26 -10 -28 -54 -28 -98 0 -165 -37 -202 -111 -18 -34 -20 -60 -20 -253 0 -118 4 -226 9 -239 16 -40 73 -99 116 -118 24 -11 64 -19 98 -19 51 0 57 -2 57 -21 0 -35 56 -142 102 -194 58 -66 136 -113 219 -133 64 -16 69 -19 69 -44 l0 -28 -209 0 -209 0 -119 56 c-281 133 -927 429 -1145 524 -230 101 -237 106 -254 143 -32 69 -81 109 -209 166 -568 254 -634 281 -690 281 -31 0 -68 -6 -84 -14 -38 -20 -96 -86 -125 -143 -44 -89 -116 -301 -116 -345 0 -57 40 -139 81 -170 42 -31 680 -395 728 -415 18 -8 56 -13 83 -12 46 3 60 -3 229 -102 l180 -104 -183 -7 c-176 -7 -185 -6 -228 15 -44 22 -52 22 -450 22 -395 0 -406 -1 -445 -21 -46 -25 -66 -45 -90 -93 -15 -30 -17 -62 -16 -230 1 -108 6 -212 11 -231 5 -19 23 -51 40 -72 51 -61 97 -76 281 -93 90 -9 251 -24 357 -36 161 -17 203 -18 250 -8 63 13 84 12 727 -26 509 -31 549 -31 600 -5 33 17 59 20 157 20 111 0 121 -2 178 -31 33 -16 86 -36 117 -42 l58 -12 2 -150 c1 -126 5 -159 22 -206 25 -66 83 -136 135 -164 l36 -20 0 -137 c0 -131 -1 -137 -21 -143 -33 -11 -108 -84 -132 -130 -18 -33 -22 -58 -23 -140 l-1 -100 -231 -450 c-222 -433 -262 -525 -262 -602 0 -21 -12 -41 -44 -72 -46 -45 -79 -108 -91 -173 -5 -26 -18 -45 -41 -63 -37 -28 -77 -94 -351 -575 -255 -446 -257 -450 -263 -495 -5 -39 -6 -40 -47 -43 -33 -2 -60 6 -135 44 -74 38 -106 48 -159 52 -82 6 -126 -15 -213 -99 l-61 -60 -195 198 c-363 367 -585 676 -813 1132 l-112 225 0 1715 0 1716 102 205 c226 454 467 800 787 1128 l149 152 2936 0 2937 0 140 -142z m899 130 c3 -7 4 -263 3 -568 l-3 -555 -70 130 c-147 273 -404 631 -641 890 l-105 115 406 0 c315 0 407 -3 410 -12z m-3660 -252 c112 -34 179 -72 259 -147 68 -63 105 -123 132 -214 16 -52 18 -100 19 -350 0 -252 -2 -298 -18 -349 -23 -73 -87 -144 -160 -177 l-52 -24 -485 0 -485 0 -65 31 c-81 38 -134 93 -161 163 -19 52 -20 73 -17 381 l3 326 38 77 c83 168 247 278 457 307 36 5 151 7 255 6 172 -3 199 -6 280 -30z m-3370 -593 c121 -53 221 -98 223 -99 4 -3 -43 -94 -60 -117 -12 -17 -28 -10 -240 92 -236 115 -251 127 -227 173 20 39 31 48 58 48 14 0 125 -43 246 -97z m6394 71 c12 -15 21 -40 21 -56 0 -29 -8 -33 -224 -139 -124 -60 -228 -109 -233 -109 -8 0 -68 108 -68 124 0 11 435 206 462 206 12 0 31 -12 42 -26z m-4237 -188 l-3 -193 -27 5 c-51 9 -52 13 -52 191 0 182 3 191 55 191 l30 0 -3 -194z m1866 182 c17 -17 17 -342 0 -355 -7 -6 -25 -13 -40 -17 l-28 -6 0 195 0 195 28 0 c15 0 33 -5 40 -12z m-4163 -317 c127 -62 231 -114 232 -115 3 -2 -66 -136 -74 -145 -2 -3 -16 2 -31 11 -386 220 -412 237 -412 284 0 38 32 90 50 81 3 -1 109 -53 235 -116z m6661 73 c22 -53 11 -80 -49 -118 -102 -65 -370 -217 -378 -214 -12 4 -79 143 -71 146 4 2 106 52 227 112 121 59 228 109 238 109 12 1 23 -12 33 -35z m-6091 -27 c52 -29 85 -79 85 -128 0 -74 -89 -269 -142 -315 -18 -14 -42 -24 -62 -24 -36 0 -115 37 -129 61 -8 12 15 67 91 223 55 113 104 206 109 206 4 0 26 -10 48 -23z m5409 -191 c74 -151 96 -203 89 -215 -15 -25 -85 -61 -117 -61 -68 0 -116 59 -186 231 -35 86 -38 131 -10 177 23 38 77 73 105 70 15 -2 44 -51 119 -202z m-4934 -112 c218 -96 612 -275 619 -280 2 -2 -17 -26 -41 -53 -31 -34 -51 -70 -64 -111 l-19 -60 -208 0 -207 0 -234 138 -233 138 23 34 c20 29 69 135 118 253 8 20 19 37 23 37 5 0 105 -43 223 -96z m4576 -8 c23 -53 59 -125 79 -159 20 -34 33 -63 28 -64 -5 -2 -113 -64 -240 -138 l-232 -135 -205 0 -205 0 -12 43 c-15 58 -34 91 -76 138 -20 22 -34 41 -32 42 17 13 836 375 844 373 5 -1 28 -46 51 -100z m-2123 -338 c-2 -5 -3 -17 -3 -28 0 -20 -7 -20 -305 -20 l-305 0 0 28 0 29 308 -1 c169 -1 306 -4 305 -8z m-1553 -64 c44 -20 80 -40 80 -43 -1 -3 -19 -18 -41 -33 -38 -27 -44 -28 -164 -28 -139 0 -142 2 -102 61 29 44 82 79 119 79 16 0 65 -16 108 -36z m2678 7 c16 -11 39 -40 50 -63 l20 -43 -129 -3 c-126 -3 -129 -2 -168 25 -22 15 -40 31 -41 34 0 3 35 23 78 42 88 42 140 44 190 8z m-5549 -1418 c0 -778 -4 -1289 -9 -1276 -18 44 -90 350 -114 483 -52 286 -61 399 -61 790 0 386 7 492 51 745 22 128 123 555 131 555 1 0 3 -584 2 -1297z m8311 1047 c49 -195 64 -270 89 -445 68 -477 51 -1009 -49 -1490 -29 -136 -96 -394 -105 -404 -3 -2 -5 578 -4 1290 1 1441 -5 1343 69 1049z m-3380 -330 c0 -442 -3 -557 -14 -583 -19 -47 -67 -84 -126 -96 -67 -14 -1277 -15 -1339 0 -60 13 -100 44 -122 93 -17 38 -19 76 -19 589 l0 547 810 0 810 0 0 -550z m-1780 215 l0 -314 -32 6 c-87 16 -162 74 -206 157 -24 46 -27 61 -27 156 0 95 3 110 27 156 43 82 141 153 211 154 l27 0 0 -315z m2022 299 c64 -21 122 -75 155 -142 25 -51 28 -68 28 -157 0 -86 -3 -106 -24 -145 -46 -88 -122 -149 -203 -164 l-38 -7 0 316 c0 356 -7 330 82 299z m-4242 -119 l0 -55 -187 0 c-159 0 -189 2 -205 17 -22 20 -23 51 -1 75 14 16 35 18 205 18 l188 0 0 -55z m329 46 c41 -6 60 -14 78 -36 24 -27 24 -30 21 -202 l-3 -175 -28 -24 c-30 -26 -84 -31 -194 -18 l-53 7 0 228 0 229 63 -1 c34 0 86 -4 116 -8z m5896 -222 l3 -227 -45 -6 c-25 -3 -75 -6 -110 -6 -58 0 -68 3 -94 29 l-29 29 0 174 0 175 26 24 c26 25 101 38 203 35 l43 -1 3 -226z m547 214 c22 -20 23 -51 1 -75 -14 -16 -35 -18 -205 -18 l-188 0 0 55 0 55 187 0 c159 0 189 -2 205 -17z m-4947 -10 c-5 -10 -17 -49 -27 -88 -28 -102 -15 -223 37 -347 7 -16 -1 -18 -91 -18 -117 0 -152 14 -201 78 -81 107 -66 270 31 348 44 35 68 41 175 43 76 1 82 -1 76 -16z m2919 8 c51 -12 111 -72 131 -129 34 -101 12 -213 -54 -279 -41 -41 -84 -53 -198 -53 l-91 0 19 40 c62 128 64 270 4 413 -6 15 0 17 71 17 44 0 96 -5 118 -9z m-3359 -23 c2 -2 -5 -32 -15 -67 -24 -76 -27 -206 -6 -275 8 -27 27 -66 41 -88 l27 -41 -84 7 c-90 7 -370 21 -621 32 l-158 6 8 32 c4 17 8 111 8 209 0 150 2 177 15 178 28 3 675 14 728 13 29 -1 55 -3 57 -6z m4263 -4 l142 -6 0 -183 c0 -101 4 -195 10 -209 9 -26 9 -26 -43 -26 -82 0 -696 -29 -754 -35 l-52 -6 36 69 c32 62 36 81 41 165 4 78 1 107 -17 165 -11 39 -21 72 -21 75 0 6 448 -1 658 -9z m-5648 -305 l0 -101 -37 6 c-21 3 -96 10 -168 17 -71 6 -140 15 -153 20 -24 9 -52 63 -52 100 0 13 7 31 17 41 14 16 35 18 205 18 l188 0 0 -101z m6774 85 c22 -21 20 -72 -4 -111 -22 -36 -27 -38 -205 -53 -66 -6 -135 -13 -152 -16 l-33 -5 0 101 0 100 189 0 c159 0 192 -3 205 -16z m-2956 -1136 l-3 -103 -625 0 -624 0 -4 103 -3 102 631 0 631 0 -3 -102z m100 -288 c43 -20 72 -63 72 -109 0 -32 -46 -77 -128 -127 -218 -133 -285 -187 -385 -317 -105 -135 -192 -184 -311 -175 -108 9 -162 46 -273 188 -101 128 -193 203 -343 281 -101 51 -160 103 -160 140 0 28 24 81 43 98 48 39 69 40 767 40 648 1 677 0 718 -19z m-1418 -421 c68 -35 105 -64 187 -146 l102 -102 -182 -293 c-101 -161 -207 -332 -236 -380 -46 -78 -81 -118 -102 -118 -4 0 -17 20 -29 45 -26 53 -92 114 -158 146 -34 16 -67 22 -119 23 -40 1 -73 3 -73 5 0 3 198 394 407 803 l55 107 32 -23 c17 -13 69 -43 116 -67z m1745 -353 c126 -244 231 -448 232 -453 2 -6 -25 -12 -64 -15 -38 -3 -89 -14 -115 -26 -59 -26 -140 -101 -166 -152 l-19 -38 -29 18 c-19 12 -70 86 -143 207 -63 103 -166 271 -228 373 -131 213 -130 187 -23 303 52 56 94 88 184 141 64 38 119 73 122 78 3 4 8 8 12 8 4 -1 110 -200 237 -444z m-1311 -34 c9 -11 34 -28 56 -38 28 -14 40 -25 40 -41 0 -12 -13 -120 -29 -240 -17 -120 -37 -276 -46 -347 -8 -72 -18 -132 -20 -134 -2 -3 -19 6 -37 20 -104 79 -239 100 -348 54 -14 -6 -15 4 -7 86 8 91 10 95 69 188 90 139 258 411 274 443 17 32 25 33 48 9z m612 -94 c37 -62 115 -187 172 -277 57 -90 108 -177 113 -193 9 -33 24 -168 18 -168 -2 0 -26 7 -53 15 -98 30 -205 10 -294 -55 -36 -26 -41 -27 -46 -12 -11 38 -26 134 -41 252 -9 69 -27 194 -40 278 -14 84 -25 161 -25 170 0 10 21 28 56 46 31 16 58 35 61 43 3 7 7 13 8 13 2 0 34 -51 71 -112z m-313 -261 c20 -133 42 -280 48 -327 12 -105 33 -182 65 -239 18 -33 24 -59 24 -106 0 -34 7 -82 15 -105 14 -39 14 -48 -2 -96 -18 -58 -18 -32 17 -824 14 -317 17 -343 46 -385 l24 -36 -25 -50 c-88 -173 -116 -360 -70 -472 7 -16 -6 -17 -189 -17 l-197 0 18 33 c13 23 17 54 17 117 -1 98 -20 181 -69 295 l-35 80 20 41 c18 36 23 91 45 495 33 593 35 694 13 737 -15 30 -16 35 -1 70 10 22 17 68 18 114 0 55 5 82 17 95 38 43 59 114 72 243 14 127 80 580 85 580 3 0 23 -109 44 -243z m-1218 -246 c76 -35 115 -95 115 -177 0 -103 -81 -184 -184 -184 -82 0 -142 39 -177 115 -45 98 4 214 108 250 52 19 91 18 138 -4z m2476 7 c110 -38 162 -164 109 -267 -88 -173 -352 -105 -352 90 0 125 127 217 243 177z m-5216 -265 c113 -214 299 -487 483 -710 115 -139 447 -475 582 -590 355 -299 927 -625 1360 -774 104 -36 129 -50 130 -72 0 -4 -587 -6 -1305 -5 l-1305 3 -2 1128 c-2 620 -2 1127 -1 1127 1 0 27 -48 58 -107z m7895 -1023 l0 -1130 -1315 0 -1315 0 11 22 c7 17 30 29 87 46 422 129 1047 485 1446 825 208 178 511 500 683 727 136 180 328 484 380 603 9 20 18 37 20 37 2 0 3 -508 3 -1130z m-4810 983 c-22 -59 -29 -168 -13 -211 7 -18 3 -36 -14 -71 -21 -43 -29 -101 -77 -629 -30 -320 -52 -592 -49 -604 3 -13 10 -29 16 -36 5 -7 8 -14 6 -15 -44 -34 -83 -52 -144 -68 -94 -23 -144 -49 -183 -94 -41 -46 -63 -89 -76 -146 l-11 -47 -115 44 c-138 53 -262 105 -273 114 -4 4 1 22 12 41 25 44 55 151 71 259 13 85 13 85 51 103 22 11 50 33 63 50 35 48 546 1050 562 1104 8 25 14 56 14 69 0 12 14 46 32 73 17 28 36 71 43 96 9 39 17 48 55 68 l45 22 3 -33 c2 -18 -6 -58 -18 -89z m1702 105 c19 -7 28 -19 33 -46 8 -41 39 -108 65 -137 10 -11 23 -49 28 -83 9 -53 57 -153 278 -580 147 -285 279 -535 293 -557 15 -22 42 -49 62 -59 34 -18 36 -23 48 -100 19 -126 51 -234 79 -267 13 -17 23 -31 21 -33 -16 -13 -399 -160 -403 -154 -2 1 -11 28 -20 59 -32 112 -102 179 -220 209 -84 21 -87 22 -132 58 -30 24 -30 25 -19 71 10 39 7 98 -21 381 -18 184 -42 434 -54 555 -22 231 -33 290 -56 316 -12 14 -13 27 -2 87 11 67 10 77 -11 144 -13 40 -25 93 -28 117 -5 40 -4 43 13 36 11 -4 31 -11 46 -17z m-1278 -91 c50 -38 70 -81 70 -148 1 -109 -86 -187 -195 -177 -98 10 -163 83 -163 184 0 63 36 124 91 154 56 30 148 24 197 -13z m999 17 c70 -36 100 -83 100 -159 0 -88 -54 -154 -141 -173 -71 -16 -129 4 -180 62 -72 82 -38 228 63 272 42 18 120 17 158 -2z m-2128 -93 c10 -31 92 -101 151 -128 46 -21 66 -24 134 -21 44 2 80 2 80 1 0 -9 -515 -1000 -524 -1009 -15 -15 -392 219 -388 241 5 24 524 935 533 935 4 0 10 -9 14 -19z m3141 -68 c61 -106 437 -761 469 -819 l24 -40 -191 -120 c-105 -65 -194 -120 -197 -121 -3 -2 -25 32 -47 75 -62 115 -494 941 -494 944 0 2 30 1 66 0 111 -6 225 46 282 129 15 21 29 38 32 39 3 0 28 -39 56 -87z m-2220 -319 c85 -25 168 -16 278 31 17 8 18 4 13 -56 -4 -35 -19 -271 -33 -524 -22 -362 -31 -464 -42 -477 -13 -16 -36 -18 -204 -18 -111 0 -197 4 -209 10 -13 7 -19 21 -19 44 0 18 20 260 45 536 25 276 45 507 45 511 0 5 18 -2 39 -17 21 -14 60 -32 87 -40z m1358 4 c65 -661 96 -1013 92 -1024 -5 -12 -44 -14 -228 -12 l-223 3 -7 100 c-17 270 -50 956 -46 960 3 3 25 -3 49 -14 97 -42 227 -32 309 24 19 13 38 24 41 24 4 1 9 -27 13 -61z m-3226 -638 c109 -57 174 -72 255 -58 l54 9 180 -111 180 -111 -8 -52 c-26 -168 -60 -257 -98 -257 -41 0 -521 304 -712 452 l-91 70 34 35 c32 35 85 73 101 73 4 0 51 -23 105 -50z m5156 -1 c25 -22 46 -45 46 -49 0 -36 -746 -530 -800 -530 -11 0 -26 11 -35 24 -17 25 -61 188 -67 246 l-3 34 182 114 182 114 54 -12 c71 -16 127 -4 247 55 52 25 106 45 120 45 18 0 44 -15 74 -41z m-1798 -594 c69 -57 114 -80 184 -94 31 -6 70 -20 87 -31 54 -33 105 -161 80 -201 -11 -18 -31 -19 -462 -17 l-450 3 -3 41 c-4 60 23 165 68 260 l39 84 200 0 201 0 56 -45z m-1253 -42 c45 -97 69 -188 65 -250 l-3 -48 -457 -3 -458 -2 0 53 c0 105 62 178 161 192 62 9 174 63 214 105 l29 30 206 0 207 0 36 -77z" fill="#cfd0d0"/>
<path d="M4615 7935 c-60 -16 -107 -64 -125 -129 -8 -28 -11 -98 -8 -203 3 -154 4 -161 30 -200 16 -24 44 -49 70 -62 43 -21 55 -21 542 -21 348 0 504 3 519 11 32 17 77 60 93 91 10 20 14 71 14 205 0 166 -2 182 -22 223 -27 52 -60 78 -114 90 -65 16 -940 11 -999 -5z" fill="#cfd0d0"/>
<path d="M5008 6441 c-121 -40 -217 -125 -271 -239 -29 -61 -32 -75 -32 -168 0 -96 2 -103 38 -176 62 -126 168 -206 305 -230 161 -27 333 46 421 179 40 60 71 160 71 228 0 118 -75 265 -172 336 -112 83 -245 108 -360 70z m217 -175 c92 -42 148 -128 148 -226 0 -93 -45 -167 -132 -218 -61 -36 -173 -38 -237 -5 -124 66 -174 214 -113 334 23 46 98 113 141 126 59 19 139 15 193 -11z" fill="#cfd0d0"/>
</g>
</svg>